<?xml version="1.0" encoding="UTF-8"?>
<svg xmlns="http://www.w3.org/2000/svg" xmlns:xlink="http://www.w3.org/1999/xlink" width="16px" height="16px" viewBox="0 0 16 16" version="1.1">
<g id="surface1">
<path style=" stroke:none;fill-rule:nonzero;fill:#40B6E0;fill-opacity:1;" d="M 9.046875 12.113281 L 3.71875 12.113281 C 3.507812 12.113281 3.339844 12.285156 3.339844 12.496094 L 3.339844 15.160156 C 3.339844 15.367188 3.507812 15.539062 3.71875 15.539062 L 9.046875 15.539062 C 9.257812 15.539062 9.429688 15.367188 9.429688 15.160156 L 9.429688 12.496094 C 9.429688 12.285156 9.257812 12.113281 9.046875 12.113281 Z M 9.046875 12.113281 "/>
<path style=" stroke:none;fill-rule:nonzero;fill:#40B6E0;fill-opacity:1;" d="M 15.621094 12.113281 L 10.289062 12.113281 C 10.082031 12.113281 9.910156 12.285156 9.910156 12.496094 L 9.910156 15.160156 C 9.910156 15.367188 10.082031 15.539062 10.289062 15.539062 L 15.621094 15.539062 C 15.828125 15.539062 16 15.367188 16 15.160156 L 16 12.496094 C 16 12.285156 15.828125 12.113281 15.621094 12.113281 Z M 15.621094 12.113281 "/>
<path style=" stroke:none;fill-rule:nonzero;fill:#40B6E0;fill-opacity:1;" d="M 3.71875 7.769531 L 9.046875 7.769531 C 9.257812 7.769531 9.429688 7.601562 9.429688 7.390625 L 9.429688 4.726562 C 9.429688 4.515625 9.257812 4.34375 9.046875 4.34375 L 3.71875 4.34375 C 3.507812 4.34375 3.339844 4.515625 3.339844 4.726562 L 3.339844 7.390625 C 3.339844 7.601562 3.507812 7.769531 3.71875 7.769531 Z M 3.71875 7.769531 "/>
<path style=" stroke:none;fill-rule:nonzero;fill:#40B6E0;fill-opacity:1;" d="M 15.621094 4.34375 L 10.289062 4.34375 C 10.082031 4.34375 9.910156 4.515625 9.910156 4.726562 L 9.910156 7.390625 C 9.910156 7.601562 10.082031 7.769531 10.289062 7.769531 L 15.621094 7.769531 C 15.828125 7.769531 16 7.601562 16 7.390625 L 16 4.726562 C 16 4.515625 15.828125 4.34375 15.621094 4.34375 Z M 15.621094 4.34375 "/>
<path style=" stroke:none;fill-rule:nonzero;fill:#40B6E0;fill-opacity:1;" d="M 6.921875 3.886719 L 12.253906 3.886719 C 12.460938 3.886719 12.632812 3.714844 12.632812 3.503906 L 12.632812 0.839844 C 12.632812 0.632812 12.460938 0.460938 12.253906 0.460938 L 6.921875 0.460938 C 6.714844 0.460938 6.542969 0.632812 6.542969 0.839844 L 6.542969 3.503906 C 6.542969 3.714844 6.714844 3.886719 6.921875 3.886719 Z M 6.921875 3.886719 "/>
<path style=" stroke:none;fill-rule:nonzero;fill:#40B6E0;fill-opacity:1;" d="M 6.652344 8.609375 L 6.652344 11.273438 C 6.652344 11.484375 6.824219 11.65625 7.035156 11.65625 L 12.363281 11.65625 C 12.574219 11.65625 12.742188 11.484375 12.742188 11.273438 L 12.742188 8.609375 C 12.742188 8.398438 12.574219 8.230469 12.363281 8.230469 L 7.035156 8.230469 C 6.824219 8.230469 6.652344 8.398438 6.652344 8.609375 Z M 6.652344 8.609375 "/>
<path style=" stroke:none;fill-rule:nonzero;fill:#40B6E0;fill-opacity:1;" d="M 6.089844 11.273438 L 6.089844 8.609375 C 6.089844 8.398438 5.917969 8.230469 5.710938 8.230469 L 0.378906 8.230469 C 0.171875 8.230469 0 8.398438 0 8.609375 L 0 11.273438 C 0 11.484375 0.171875 11.65625 0.378906 11.65625 L 5.710938 11.65625 C 5.917969 11.65625 6.089844 11.484375 6.089844 11.273438 Z M 6.089844 11.273438 "/>
</g>
</svg>
